<svg width="14" height="18" viewBox="0 0 14 18" fill="none" xmlns="http://www.w3.org/2000/svg">
<path d="M6.99992 8.71418V13.857M6.99992 13.857L9.57131 12.1427M6.99992 13.857L4.42852 12.1427M7.85705 1.00075C7.7752 1 7.68329 1 7.57823 1H3.74299C2.78291 1 2.30251 1 1.93581 1.18684C1.61325 1.3512 1.3512 1.61325 1.18684 1.93581C1 2.30251 1 2.78291 1 3.74299V13.6857C1 14.6458 1 15.1256 1.18684 15.4923C1.3512 15.8148 1.61325 16.0773 1.93581 16.2417C2.30216 16.4284 2.78197 16.4284 3.74017 16.4284H10.2597C11.2179 16.4284 11.697 16.4284 12.0633 16.2417C12.3859 16.0773 12.6488 15.8148 12.8132 15.4923C12.9998 15.1259 12.9998 14.6468 12.9998 13.6886V6.42194C12.9998 6.31675 12.9998 6.22473 12.999 6.14278M7.85705 1.00075C8.10188 1.00297 8.25676 1.01187 8.40462 1.04737C8.57953 1.08936 8.74662 1.1588 8.9 1.25279C9.07294 1.35877 9.22144 1.50727 9.51774 1.80356L12.1967 4.48251C12.4932 4.77899 12.6406 4.92682 12.7466 5.09982C12.8406 5.2532 12.9101 5.42044 12.9521 5.59536C12.9876 5.74316 12.9967 5.89808 12.999 6.14278M7.85705 1.00075V3.39997C7.85705 4.36004 7.85705 4.83975 8.04389 5.20645C8.20824 5.52901 8.4703 5.79177 8.79286 5.95612C9.1592 6.14279 9.63902 6.14279 10.5972 6.14278H12.999M12.999 6.14278H13" stroke="white" stroke-width="1.2857" stroke-linecap="round" stroke-linejoin="round"/>
</svg>
