<svg width="25" height="17" viewBox="0 0 25 17" fill="none" xmlns="http://www.w3.org/2000/svg">
<path fill-rule="evenodd" clip-rule="evenodd" d="M5.00501 16.2178C4.03182 16.2178 3.17237 16.0298 2.42667 15.6538C1.68098 15.2634 1.09327 14.7138 0.663544 14.0052C0.23382 13.2822 0.0126389 12.4072 0 11.3805H2.55938C2.58466 12.0891 2.80584 12.6892 3.22292 13.1809C3.65265 13.6581 4.24036 13.8968 4.98605 13.8968C5.63064 13.8968 6.14252 13.7232 6.52168 13.3761C6.90085 13.0146 7.09044 12.5374 7.09044 11.9445C7.09044 11.3226 6.91981 10.8382 6.57856 10.4911C6.24995 10.144 5.80758 9.86202 5.25147 9.6451C4.69536 9.42817 4.10133 9.19679 3.46938 8.95095C3.29838 8.88334 3.13407 8.81248 2.97647 8.73836V5.36608C3.04584 5.55733 3.14695 5.72556 3.2798 5.87066C3.55786 6.15989 3.93702 6.40573 4.4173 6.60819C4.89758 6.81065 5.44738 7.02757 6.06668 7.25896C6.72391 7.51926 7.32425 7.82295 7.86773 8.17003C8.4112 8.5171 8.84725 8.97987 9.17586 9.55833C9.50447 10.1223 9.66878 10.8526 9.66878 11.7492C9.66878 12.5446 9.49183 13.2821 9.13794 13.9618C8.78405 14.6415 8.25954 15.1911 7.5644 15.6104C6.86926 16.0154 6.01613 16.2178 5.00501 16.2178ZM0.322292 4.85113L0.322324 4.87041H2.87154C2.86565 4.801 2.86272 4.72953 2.86272 4.6559C2.86272 4.06298 3.03966 3.61468 3.39355 3.31098C3.76008 2.99283 4.20876 2.84099 4.7396 2.85545C5.3589 2.85545 5.83918 3.06514 6.18043 3.48452C6.53432 3.88944 6.71759 4.35944 6.73023 4.89451H9.32752C9.30225 3.9979 9.0937 3.22422 8.7019 2.57345C8.32273 1.92269 7.7919 1.41654 7.10939 1.055C6.43953 0.693463 5.66224 0.512695 4.77751 0.512695C3.90543 0.512695 3.13445 0.693463 2.46459 1.055C1.79473 1.40207 1.26389 1.90099 0.872086 2.55176C0.492918 3.18806 0.309653 3.95452 0.322292 4.85113ZM10.8381 15.9575V0.773002H13.7198L15.5184 4.87041H13.2456V10.414H13.2648V15.9575H10.8381ZM15.4601 10.414L16.9616 13.7883H18.8764L22.5733 5.4802V15.9575H25V0.773002H22.1183L17.9475 10.4043L17.9325 10.3702V10.414H15.4601Z" fill="black"/>
</svg>
